<svg width="807" height="756" viewBox="0 0 807 756" fill="none" xmlns="http://www.w3.org/2000/svg">
<path fill-rule="evenodd" clip-rule="evenodd" d="M426.654 33.0318C500.938 44.6333 572.16 61.0295 636.021 100.701C704.292 143.111 781.974 189.001 802.704 266.638C823.203 343.411 765.033 415.156 740.133 490.618C715.385 565.623 720.102 658.262 657.561 706.518C594.706 755.016 505.867 727.09 426.654 732.497C339.685 738.433 250.152 777.556 171.642 739.687C87.7072 699.2 12.0924 619.593 0.844609 527.106C-10.1113 437.019 88.6316 374.411 116.725 288.116C144.794 201.892 93.6513 84.5628 163.675 26.9307C233.067 -30.1819 337.848 19.1623 426.654 33.0318Z" fill="url(#paint0_linear)"/>
<defs>
<linearGradient id="paint0_linear" x1="138" y1="8.72931e-06" x2="628" y2="756" gradientUnits="userSpaceOnUse">
<stop stop-color="#F7F2FF" stop-opacity="0.07"/>
<stop offset="1" stop-color="#FDFBFF"/>
</linearGradient>
</defs>
</svg>
